<svg xmlns="http://www.w3.org/2000/svg" xmlns:xlink="http://www.w3.org/1999/xlink" width="500" zoomAndPan="magnify" viewBox="0 0 375 374.999991" height="500" preserveAspectRatio="xMidYMid meet" version="1.0"><defs><g/><clipPath id="6381ea3faf"><path d="M 12.511719 14.699219 L 362.488281 14.699219 L 362.488281 360 L 12.511719 360 Z M 12.511719 14.699219 " clip-rule="nonzero"/></clipPath><clipPath id="ea602fd074"><path d="M 187.5 14.699219 C 90.859375 14.699219 12.511719 92.0625 12.511719 187.5 C 12.511719 282.9375 90.859375 360.300781 187.5 360.300781 C 284.140625 360.300781 362.488281 282.9375 362.488281 187.5 C 362.488281 92.0625 284.140625 14.699219 187.5 14.699219 " clip-rule="nonzero"/></clipPath><clipPath id="eeace9636a"><path d="M 0 225.996094 L 92.722656 225.996094 L 92.722656 272.679688 L 0 272.679688 Z M 0 225.996094 " clip-rule="nonzero"/></clipPath><clipPath id="e97698a707"><path d="M 308 153 L 375 153 L 375 188 L 308 188 Z M 308 153 " clip-rule="nonzero"/></clipPath><clipPath id="d0905ff3d7"><path d="M 311.203125 136.945312 L 521.648438 153.871094 L 517.652344 203.574219 L 307.207031 186.648438 Z M 311.203125 136.945312 " clip-rule="nonzero"/></clipPath><clipPath id="cc9f4c079e"><path d="M 518.085938 203.992188 L 307.636719 187.066406 L 311.636719 137.363281 L 522.082031 154.289062 Z M 518.085938 203.992188 " clip-rule="nonzero"/></clipPath><clipPath id="e75940aff8"><path d="M 518.085938 203.992188 L 307.636719 187.066406 L 311.636719 137.363281 L 522.082031 154.289062 Z M 518.085938 203.992188 " clip-rule="nonzero"/></clipPath></defs><g clip-path="url(#6381ea3faf)"><g clip-path="url(#ea602fd074)"><path fill="#ffbb03" d="M 12.511719 14.699219 L 362.488281 14.699219 L 362.488281 359.203125 L 12.511719 359.203125 Z M 12.511719 14.699219 " fill-opacity="1" fill-rule="nonzero"/></g></g><g fill="#000000" fill-opacity="1"><g transform="translate(71.903628, 232.000116)"><g><path d="M 81.398438 23.492188 C 99.945312 9.683594 126.324219 -33.589844 137.65625 -48.425781 C 137.65625 -49.457031 134.976562 -49.457031 134.152344 -48.632812 C 125.292969 -37.300781 95.410156 10.714844 77.691406 22.460938 C 70.890625 26.789062 64.914062 28.4375 62.441406 25.347656 C 55.023438 15.660156 67.179688 -38.949219 72.539062 -61.410156 C 139.921875 -137.039062 135.597656 -171.863281 114.78125 -171.863281 C 87.167969 -171.863281 66.355469 -127.765625 55.847656 -54.402344 C 50.074219 -68.210938 41.421875 -80.574219 30.292969 -80.78125 C -4.945312 -81.191406 -11.953125 -6.183594 7.210938 0.414062 C 19.164062 4.535156 37.300781 -15.457031 53.785156 -38.742188 C 50.488281 -13.601562 48.632812 8.449219 50.898438 17.105469 C 54.609375 31.117188 64.914062 36.0625 81.398438 23.492188 Z M 73.15625 -66.769531 C 79.132812 -121.996094 100.5625 -168.566406 113.957031 -168.566406 C 130.855469 -168.566406 134.976562 -140.542969 73.15625 -66.769531 Z M 30.292969 -77.691406 C 41.214844 -78.515625 50.695312 -59.554688 55.023438 -48.425781 L 54.402344 -44.304688 C 31.527344 -11.746094 16.28125 0.207031 11.335938 -2.265625 C 0 -8.035156 15.457031 -76.453125 30.292969 -77.691406 Z M 30.292969 -77.691406 "/></g></g></g><g fill="#000000" fill-opacity="1"><g transform="translate(204.406256, 232.000116)"><g><path d="M 1.648438 -66.355469 C -5.359375 -37.09375 -4.945312 22.875 18.339844 19.371094 C 26.789062 18.132812 42.65625 0 52.34375 -18.132812 C 70.476562 -14.011719 91.289062 -27.40625 106.953125 -48.222656 C 106.953125 -49.25 103.65625 -49.046875 102.832031 -48.015625 C 91.910156 -32.972656 69.859375 -16.691406 53.785156 -21.226562 C 70.066406 -55.847656 68.210938 -78.925781 54.402344 -81.8125 C 29.054688 -84.285156 21.226562 -33.796875 48.839844 -19.578125 C 38.125 1.648438 24.316406 14.835938 18.339844 15.867188 C 7.210938 17.722656 8.035156 -32.148438 16.484375 -67.796875 C 18.957031 -77.894531 4.328125 -77.894531 1.648438 -66.355469 Z M 50.28125 -22.667969 C 24.933594 -36.269531 34.621094 -80.574219 53.167969 -79.132812 C 66.355469 -76.660156 64.707031 -51.519531 50.28125 -22.667969 Z M 50.28125 -22.667969 "/></g></g></g><g clip-path="url(#eeace9636a)"><path fill="#000000" d="M -95.84375 270.976562 C -95.363281 269.851562 -95.550781 268.480469 -96.339844 267.652344 C -96.417969 267.574219 -96.496094 267.464844 -96.589844 267.402344 C -96.742188 267.308594 -96.898438 267.167969 -97.070312 267.027344 C -97.070312 267.027344 -97.085938 267.011719 -97.085938 266.996094 C -97.101562 266.996094 -97.101562 266.996094 -97.101562 266.996094 C -97.796875 266.328125 -98.464844 265.265625 -98.882812 264.46875 C -98.898438 264 -98.867188 263.472656 -98.789062 262.863281 C -98.464844 259.757812 -95.953125 256.527344 -91.257812 253.125 C -88.605469 251.140625 -85.273438 249.253906 -81.242188 247.460938 C -77.058594 245.648438 -72.007812 244.074219 -66.085938 242.761719 C -53.25 240.015625 -40.867188 239.34375 -28.914062 240.75 C -17.136719 242.167969 -5.046875 243.480469 7.386719 244.667969 C 14.191406 245.445312 21.074219 245.882812 27.984375 245.976562 C 34.898438 246.070312 42.183594 245.617188 49.808594 244.621094 C 66.410156 242.464844 78.71875 238.582031 86.699219 232.960938 C 88.515625 231.648438 90.164062 230.496094 91.683594 229.46875 C 91.835938 228.898438 92.003906 228.328125 92.164062 227.757812 C 92.089844 227.171875 92.011719 226.582031 91.925781 225.996094 C 90.046875 227.3125 87.902344 228.796875 85.414062 230.511719 C 77.230469 235.972656 65.355469 239.734375 49.730469 241.78125 C 36.464844 243.574219 23.816406 243.589844 11.847656 241.839844 C -0.285156 240.109375 -12.46875 238.8125 -24.683594 237.941406 C -31.300781 237.488281 -38.058594 237.363281 -44.941406 237.613281 C -51.808594 237.847656 -58.863281 238.796875 -66.097656 240.421875 C -73.167969 242.042969 -79.042969 243.886719 -83.707031 245.914062 C -88.1875 248.097656 -91.738281 250.269531 -94.371094 252.421875 C -99.457031 256.714844 -101.90625 260.707031 -101.671875 264.421875 L -101.53125 265.6875 C -101.5 266.03125 -101.457031 266.34375 -101.394531 266.636719 C -101.347656 267.371094 -101.347656 268.121094 -101.425781 268.777344 C -101.472656 269.246094 -101.441406 269.730469 -101.394531 270.199219 C -101.269531 271.367188 -100.042969 272.492188 -98.710938 272.664062 " fill-opacity="1" fill-rule="nonzero"/></g><g clip-path="url(#e97698a707)"><g clip-path="url(#d0905ff3d7)"><g clip-path="url(#cc9f4c079e)"><g clip-path="url(#e75940aff8)"><path fill="#000000" d="M 514.753906 155.519531 C 514.136719 156.675781 514.222656 158.152344 515.003906 159.101562 C 515.078125 159.191406 515.152344 159.316406 515.25 159.390625 C 515.40625 159.503906 515.5625 159.667969 515.734375 159.832031 C 515.734375 159.832031 515.75 159.847656 515.75 159.867188 C 515.765625 159.867188 515.765625 159.867188 515.765625 159.867188 C 516.460938 160.640625 517.085938 161.828125 517.46875 162.714844 C 517.445312 163.214844 517.367188 163.777344 517.230469 164.417969 C 516.617188 167.695312 513.632812 170.917969 508.28125 174.132812 C 505.253906 176.011719 501.5 177.734375 497 179.296875 C 492.335938 180.859375 486.753906 182.101562 480.261719 182.984375 C 466.191406 184.792969 452.785156 184.4375 440.027344 181.902344 C 427.449219 179.371094 414.53125 176.925781 401.234375 174.585938 C 393.96875 173.164062 386.585938 172.105469 379.144531 171.40625 C 371.699219 170.707031 363.808594 170.554688 355.503906 170.957031 C 337.425781 171.8125 323.828125 174.882812 314.746094 180.171875 C 312.675781 181.414062 310.800781 182.5 309.070312 183.460938 C 308.859375 184.054688 308.632812 184.648438 308.410156 185.238281 C 308.4375 185.871094 308.472656 186.503906 308.515625 187.136719 C 310.652344 185.898438 313.089844 184.503906 315.921875 182.894531 C 325.210938 177.785156 338.328125 174.8125 355.34375 173.988281 C 369.800781 173.230469 383.433594 174.308594 396.179688 177.207031 C 409.113281 180.105469 422.132812 182.539062 435.222656 184.527344 C 442.320312 185.582031 449.59375 186.304688 457.03125 186.632812 C 464.453125 186.980469 472.136719 186.578125 480.074219 185.476562 C 487.832031 184.359375 494.324219 182.910156 499.523438 181.152344 C 504.539062 179.214844 508.550781 177.214844 511.578125 175.148438 C 517.421875 171.019531 520.40625 166.980469 520.472656 163.003906 L 520.429688 161.648438 C 520.425781 161.277344 520.402344 160.941406 520.363281 160.621094 C 520.375 159.835938 520.4375 159.039062 520.578125 158.347656 C 520.667969 157.851562 520.675781 157.335938 520.667969 156.832031 C 520.632812 155.574219 519.410156 154.273438 517.988281 153.972656 " fill-opacity="1" fill-rule="nonzero"/></g></g></g></g></svg>